# xmcd
#
# Track frame offsets:
#  150
#  20476
#  42070
#  60074
#  76199
#  96993
#  126095
#  154114
#  189097
#  209489
#  226126
#  252528
#  272547
#  290653
#  310726
#
# Disc length: 4584 seconds
#
# Revision: 1
# Processed by: cddbd v1.5.1PL0 Copyright (c) Steve Scherf et al.
# Submitted via: Collectorz.com_Music_Collector 6.9
#
DISCID=bf11e60f
DTITLE=Michael Hawkeye Herman - It's All Blues To Me
DYEAR=2005
DGENRE=Blues
TTITLE0=My Girl (Josephine)
TTITLE1=Baby, Scratch My Back
TTITLE2=I Used To Ride That Train
TTITLE3=Sixteen Tons
TTITLE4=Give Me A Grandma Every Time
TTITLE5=Moondance
TTITLE6=Evil Ways/You're No Good
TTITLE7=Baby Please
TTITLE8=St. James Infirmary
TTITLE9=Signifyin' Monkey
TTITLE10=Blind Willie McTell
TTITLE11=Brain Cloudy Blues
TTITLE12=Mind Your Own Business
TTITLE13=Route 66
TTITLE14=Poke Salad Annie
EXTD=
EXTT0=
EXTT1=
EXTT2=
EXTT3=
EXTT4=
EXTT5=
EXTT6=
EXTT7=
EXTT8=
EXTT9=
EXTT10=
EXTT11=
EXTT12=
EXTT13=
EXTT14=
PLAYORDER=
